<svg width="138" height="138" viewBox="0 0 138 138" fill="none" xmlns="http://www.w3.org/2000/svg">
<path d="M0.999996 49V1H49" stroke="#D2BE8B" stroke-width="2"/>
<path d="M137 89L137 137L89 137" stroke="#D2BE8B" stroke-width="2"/>
<path d="M49 137L0.999998 137L1 89" stroke="#D2BE8B" stroke-width="2"/>
<path d="M89 0.999998L137 1L137 49" stroke="#D2BE8B" stroke-width="2"/>
<path d="M66.9993 33.7047L36.7538 39.7538L30.7047 69.9993C30.6079 70.4836 30.6321 70.9843 30.7752 71.457C30.9183 71.9297 31.1759 72.3597 31.5252 72.7089L70.695 111.879C70.9735 112.157 71.3042 112.378 71.6682 112.529C72.0322 112.68 72.4223 112.757 72.8163 112.757C73.2102 112.757 73.6004 112.68 73.9643 112.529C74.3283 112.378 74.659 112.157 74.9376 111.879L108.879 77.9376C109.157 77.659 109.378 77.3283 109.529 76.9643C109.68 76.6004 109.757 76.2102 109.757 75.8163C109.757 75.4223 109.68 75.0322 109.529 74.6682C109.378 74.3042 109.157 73.9735 108.879 73.695L69.7089 34.5252C69.3597 34.1759 68.9297 33.9183 68.457 33.7752C67.9843 33.6321 67.4836 33.6079 66.9993 33.7047V33.7047Z" stroke="#D2BE8B" stroke-width="2" stroke-linecap="round" stroke-linejoin="round"/>
<path d="M52.5 60C54.9853 60 57 57.9853 57 55.5C57 53.0147 54.9853 51 52.5 51C50.0147 51 48 53.0147 48 55.5C48 57.9853 50.0147 60 52.5 60Z" fill="#D2BE8B"/>
</svg>
