<svg width="108" height="16" viewBox="0 0 108 16" fill="none" xmlns="http://www.w3.org/2000/svg">
<path fill-rule="evenodd" clip-rule="evenodd" d="M102.904 9.76L108 16H105.657L100.674 9.80572H97.5798V16H95.6914V8.11428H101.812C103.025 8.11428 103.939 7.82115 104.553 7.23428C105.167 6.64788 105.474 5.88217 105.474 4.93715C105.474 4.00788 105.164 3.2536 104.542 2.67428C103.92 2.09543 103.01 1.80572 101.812 1.80572H95.6914V0H101.993C103.707 0 105.034 0.4536 105.975 1.36C106.915 2.26685 107.386 3.45932 107.386 4.93715C107.386 6.27828 106.995 7.37543 106.214 8.22857C105.433 9.08217 104.329 9.59257 102.904 9.76ZM81.3583 6.88012L90.9139 6.88V8.68572H83.2467V14.1943H91.4599V16H81.3583V6.88012ZM81.3583 1.80572V0H91.4599V1.80572H81.3583ZM72.3033 16H70.3921V1.80572H65.273V0H77.4452V1.80572H72.3033V16ZM52.0776 1.80572V0H62.1792V1.80572H52.0776ZM44.2742 11.2H36.88L34.9916 16H32.9894L35.6195 9.3944H40.5351V9.39428H43.5688L39.8592 0H41.7942L48.1646 16H46.1626L44.2742 11.2ZM27.9603 16L22.9777 9.80572H19.8835V16H17.9951V8.11428H24.1153C25.3286 8.11428 26.2425 7.82115 26.8568 7.23428C27.4711 6.64788 27.7781 5.88217 27.7781 4.93715C27.7781 4.00788 27.4672 3.2536 26.8454 2.67428C26.2233 2.09543 25.3133 1.80572 24.1153 1.80572H17.9951V0H24.2972C26.0111 0 27.3382 0.4536 28.2787 1.36C29.219 2.26685 29.6895 3.45932 29.6895 4.93715C29.6895 6.27828 29.2986 7.37543 28.5177 8.22857C27.7363 9.08217 26.6329 9.59257 25.2073 9.76L30.3037 16H27.9603ZM5.3921 16H0V9.3944H1.88837V14.1943H5.41485C7.20437 14.1943 8.69107 13.6115 9.87414 12.4457C11.0572 11.28 11.6562 9.79828 11.6715 8C11.6715 6.20217 11.076 4.72 9.88552 3.55428C8.69459 2.38857 7.20437 1.80572 5.41485 1.80572H0V0H5.3921C7.72766 0 9.6729 0.754285 11.2279 2.26285C12.7824 3.77143 13.5599 5.684 13.5599 8C13.5599 10.3011 12.7785 12.2097 11.2165 13.7257C9.65403 15.2421 7.71275 16 5.3921 16ZM61.6332 6.99428V8.8H53.966V16H52.0776V6.9944L61.6332 6.99428Z" fill="#E5D6A0"/>
</svg>
