<svg width="177" height="48" viewBox="0 0 177 48" fill="none" xmlns="http://www.w3.org/2000/svg">
<path fill-rule="evenodd" clip-rule="evenodd" d="M44.9486 36.5705L29.314 21.4252L22.9161 27.7788C22.9161 27.7788 19.9379 31.3228 16.9645 28.3699C13.991 25.417 17.634 22.5334 17.634 22.5334L38.911 1.40374C38.911 1.40374 40.8783 -0.360732 42.9655 0.664942C45.0803 1.70414 44.937 3.9526 44.937 3.9526L44.9486 36.5705ZM31.4889 4.67178C30.4434 3.63351 30.4784 1.91536 31.5671 0.834201C32.6558 -0.246994 34.3859 -0.281754 35.4315 0.756516L36.6044 1.92138L32.6619 5.83661L31.4889 4.67178ZM27.8262 10.5649L21.8919 4.67178C20.8464 3.63351 20.8814 1.91536 21.9701 0.834201C23.0589 -0.246994 24.789 -0.281754 25.8345 0.756516L31.7687 6.64969L27.8262 10.5649ZM22.9905 15.2563L12.3322 4.67178C11.2867 3.63351 11.3217 1.91536 12.4104 0.834201C13.4991 -0.246994 15.2292 -0.281754 16.2747 0.756516L26.9331 11.3411L22.9905 15.2563ZM16.7041 21.6099C16.7041 21.6099 12.4505 25.7265 16.2949 29.2934C19.4853 32.2535 22.5295 29.9953 23.4729 29.1413L23.7844 28.832L23.7872 28.8347L24.7867 27.8421L24.7708 27.8263L29.1107 23.5165L44.4451 38.7447C44.6415 38.9397 44.805 39.1547 44.937 39.3829V42.4164C44.805 42.6445 44.6415 42.8596 44.4451 43.0546C43.2467 44.2447 41.3037 44.2447 40.1052 43.0546L27.2891 30.3272C27.0527 30.2062 26.7055 30.1177 26.4126 30.4016C26.1184 30.6869 26.1721 31.0479 26.2651 31.2955L36.7956 41.753C37.8419 42.792 37.8068 44.5114 36.7174 45.5934C35.6279 46.6753 33.8965 46.7101 32.8502 45.6711L22.3701 35.2635C22.1359 35.1194 21.7658 34.9994 21.391 35.3146C20.9907 35.6511 21.2125 36.12 21.3893 36.3792L28.6839 43.6232C29.7301 44.6623 29.9009 46.2142 28.9276 47.1808C27.9544 48.1473 26.2056 48.1624 25.1593 47.1234L21.6785 43.7775C21.6785 43.7775 21.6447 43.6688 21.5811 43.4973C21.3928 43.1212 20.9503 42.371 20.2006 41.7421C18.3317 40.1743 16.2577 40.8925 16.2577 40.8925C16.2577 40.8925 17.0843 37.9299 14.807 36.3489C11.2888 33.9064 8.03705 37.9743 8.03705 37.9743C8.03705 37.9743 8.17647 35.5128 5.87959 34.2433C3.02996 32.6683 0.70571 34.976 0.381979 35.3691C0.352259 35.4052 0.337156 35.4254 0.337156 35.4254V5.57795C0.337156 5.57795 0.15121 1.99478 2.34582 0.923522C5.27777 -0.851885 7.62788 1.84702 7.62788 1.84702L22.0605 16.2536L16.7041 21.6099ZM5.89998 35.9418C7.0621 37.0958 7.0621 38.967 5.89998 40.121L3.71685 42.289C2.80272 43.1968 1.44196 43.3901 0.337156 42.8697V37.2868L1.69156 35.9418C2.85368 34.7877 4.73785 34.7877 5.89998 35.9418ZM10.1742 37.7049C11.2999 36.5869 13.1253 36.5869 14.251 37.7049C15.3769 38.8229 15.3769 40.6356 14.251 41.7535L10.7002 45.2798C9.57439 46.3978 7.7491 46.3978 6.62328 45.2798C5.4975 44.1618 5.4975 42.3492 6.62328 41.2311L10.1742 37.7049ZM15.2374 42.8637C16.3995 41.7096 18.2837 41.7096 19.4458 42.8637C20.608 44.0177 20.608 45.8889 19.4458 47.0429L19.3537 47.1344C18.1916 48.2885 16.3074 48.2885 15.1453 47.1344C13.9831 45.9804 13.9831 44.1092 15.1453 42.9552L15.2374 42.8637Z" fill="url(#paint0_linear)"/>
<path fill-rule="evenodd" clip-rule="evenodd" d="M171.852 24.76L176.949 31H174.605L169.623 24.8057H166.528V31H164.64V23.1143H170.76C171.974 23.1143 172.888 22.8211 173.502 22.2343C174.116 21.6479 174.423 20.8822 174.423 19.9371C174.423 19.0079 174.112 18.2536 173.491 17.6743C172.868 17.0954 171.958 16.8057 170.76 16.8057H164.64V15H170.942C172.656 15 173.983 15.4536 174.924 16.36C175.864 17.2669 176.334 18.4593 176.334 19.9371C176.334 21.2783 175.944 22.3754 175.163 23.2286C174.381 24.0822 173.278 24.5926 171.852 24.76ZM150.307 21.8801L159.863 21.88V23.6857H152.195V29.1943H160.409V31H150.307V21.8801ZM150.307 16.8057V15H160.409V16.8057H150.307ZM141.252 31H139.341V16.8057H134.222V15H146.394V16.8057H141.252V31ZM121.026 16.8057V15H131.128V16.8057H121.026ZM113.223 26.2H105.829L103.94 31H101.938L104.568 24.3944H109.484V24.3943H112.518L108.808 15H110.743L117.113 31H115.111L113.223 26.2ZM96.909 31L91.9264 24.8057H88.8322V31H86.9438V23.1143H93.0641C94.2773 23.1143 95.1912 22.8211 95.8055 22.2343C96.4199 21.6479 96.7269 20.8822 96.7269 19.9371C96.7269 19.0079 96.416 18.2536 95.7942 17.6743C95.1721 17.0954 94.262 16.8057 93.0641 16.8057H86.9438V15H93.2459C94.9599 15 96.2869 15.4536 97.2275 16.36C98.1677 17.2669 98.6382 18.4593 98.6382 19.9371C98.6382 21.2783 98.2474 22.3754 97.4664 23.2286C96.685 24.0822 95.5817 24.5926 94.1561 24.76L99.2525 31H96.909ZM74.3408 31H68.9487V24.3944H70.8371V29.1943H74.3636C76.1531 29.1943 77.6398 28.6115 78.8229 27.4457C80.0059 26.28 80.6049 24.7983 80.6202 23C80.6202 21.2022 80.0247 19.72 78.8343 18.5543C77.6433 17.3886 76.1531 16.8057 74.3636 16.8057H68.9487V15H74.3408C76.6764 15 78.6216 15.7543 80.1766 17.2629C81.7311 18.7714 82.5087 20.684 82.5087 23C82.5087 25.3011 81.7272 27.2097 80.1652 28.7257C78.6028 30.2421 76.6615 31 74.3408 31ZM130.582 21.9943V23.8H122.915V31H121.026V21.9944L130.582 21.9943Z" fill="#E5D6A0"/>
<defs>
<linearGradient id="paint0_linear" x1="22.6409" y1="0" x2="22.6409" y2="48" gradientUnits="userSpaceOnUse">
<stop stop-color="#E5D6A0"/>
<stop offset="1" stop-color="#D2BE8B"/>
</linearGradient>
</defs>
</svg>
