<svg width="40" height="40" viewBox="0 0 40 40" fill="none" xmlns="http://www.w3.org/2000/svg">
<path d="M40 20.4443C40 18.7999 39.8639 17.5999 39.5692 16.3555H20.4082V23.7776H31.6553C31.4286 25.6221 30.2041 28.3999 27.483 30.2665L27.4448 30.5149L33.5032 35.1144L33.9229 35.1555C37.7777 31.6665 40 26.5332 40 20.4443Z" fill="#84909A"/>
<path d="M20.4081 40C25.9182 40 30.544 38.2221 33.9228 35.1556L27.4829 30.2666C25.7596 31.4443 23.4466 32.2666 20.4081 32.2666C15.0113 32.2666 10.4308 28.7778 8.79804 23.9556L8.55871 23.9755L2.25914 28.7533L2.17676 28.9777C5.53273 35.511 12.4262 40 20.4081 40Z" fill="#84909A"/>
<path d="M8.7981 23.9555C8.36727 22.7111 8.11793 21.3777 8.11793 19.9999C8.11793 18.6221 8.36727 17.2888 8.77543 16.0444L8.76402 15.7793L2.38551 10.9248L2.17682 11.0221C0.79366 13.7332 0 16.7777 0 19.9999C0 23.2222 0.79366 26.2665 2.17682 28.9777L8.7981 23.9555Z" fill="#84909A"/>
<path d="M20.4081 7.73328C24.2402 7.73328 26.8252 9.3555 28.2992 10.7111L34.0588 5.2C30.5215 1.97779 25.9182 0 20.4081 0C12.4262 0 5.53273 4.48886 2.17676 11.0221L8.77537 16.0444C10.4308 11.2222 15.0113 7.73328 20.4081 7.73328Z" fill="#84909A"/>
</svg>
