<svg width="294" height="294" viewBox="0 0 294 294" fill="none" xmlns="http://www.w3.org/2000/svg">
<path d="M1 46V1H46" stroke="#E5D6A0" stroke-width="2"/>
<path d="M293 248V293H248" stroke="#E5D6A0" stroke-width="2"/>
<path d="M200.315 192H93.6605C89.3875 192 87 189.637 87 185.341V122.029C87 117.732 90.2201 114.537 94.5054 114.537H116.936C119.287 113.509 121.845 111.366 124.515 106.886C127.869 101.243 133.673 102.038 133.673 102.038H160.339C160.339 102.038 167.306 102.087 169.706 106.935C171.934 111.428 174.469 113.533 176.513 114.525H199.507C203.78 114.525 207 117.732 207 122.016V185.328C206.988 189.637 204.6 192 200.315 192ZM146.994 180.481C162.274 180.481 174.665 168.093 174.665 152.816C174.665 137.538 162.274 125.358 146.994 125.358C131.714 125.358 119.323 137.538 119.323 152.816C119.323 168.093 131.714 180.481 146.994 180.481ZM180.321 125.358C178.717 125.358 176.991 127.072 176.991 128.688C176.991 130.304 178.717 132.018 180.321 132.018C181.925 132.018 183.762 130.402 183.762 128.786C183.762 127.182 181.925 125.358 180.321 125.358ZM146.994 132.03C158.466 132.03 167.784 141.358 167.784 152.816C167.784 164.273 158.478 173.565 146.994 173.565C135.509 173.565 126.216 164.273 126.216 152.816C126.216 141.358 135.509 132.03 146.994 132.03ZM97.0031 104.536H114.499V112.027H97.0031V104.536Z" fill="#D2BE8B"/>
</svg>
