<svg width="138" height="138" viewBox="0 0 138 138" fill="none" xmlns="http://www.w3.org/2000/svg">
<path d="M111.269 67.6692L102 72.3038L90 49.323L99.3635 44.6413C100.067 44.2896 100.88 44.2282 101.629 44.4703C102.377 44.7125 103 45.2388 103.364 45.936L112.587 63.5974C112.771 63.9505 112.883 64.3369 112.917 64.7339C112.95 65.1309 112.904 65.5305 112.782 65.9096C112.659 66.2886 112.462 66.6395 112.202 66.9416C111.943 67.2437 111.625 67.4911 111.269 67.6692V67.6692Z" stroke="#D2BE8B" stroke-width="2" stroke-linecap="round" stroke-linejoin="round"/>
<path d="M36 71.9018L26.7309 67.2673C26.3745 67.0891 26.0572 66.8417 25.7975 66.5396C25.5378 66.2375 25.3409 65.8867 25.2182 65.5076C25.0956 65.1286 25.0496 64.7289 25.0831 64.3319C25.1166 63.9349 25.2288 63.5485 25.4132 63.1954L34.6356 45.534C34.9996 44.8368 35.6229 44.3105 36.3712 44.0683C37.1195 43.8262 37.933 43.8876 38.6365 44.2393L48 48.9211L36 71.9018Z" stroke="#D2BE8B" stroke-width="2" stroke-linecap="round" stroke-linejoin="round"/>
<path d="M102 72.3039L96 79.3232L82.2011 93.1221C81.8348 93.4884 81.3798 93.7536 80.8806 93.8919C80.3813 94.0302 79.8547 94.0368 79.3521 93.9112L57.6183 88.4777C57.2107 88.3758 56.829 88.1894 56.4979 87.9305L36 71.902" stroke="#D2BE8B" stroke-width="2" stroke-linecap="round" stroke-linejoin="round"/>
<path d="M96 79.3231L79.5 67.3231L74.7 70.9231C72.6229 72.481 70.0965 73.3231 67.5 73.3231C64.9036 73.3231 62.3772 72.481 60.3 70.9231L58.2673 69.3985C57.9234 69.1407 57.639 68.8119 57.4333 68.4345C57.2275 68.0571 57.1053 67.6399 57.0748 67.2112C57.0443 66.7825 57.1064 66.3522 57.2566 65.9495C57.4069 65.5468 57.642 65.1811 57.9459 64.8772L72.6214 50.2018C72.8999 49.9232 73.2307 49.7022 73.5946 49.5515C73.9586 49.4007 74.3487 49.3231 74.7427 49.3231H90" stroke="#D2BE8B" stroke-width="2" stroke-linecap="round" stroke-linejoin="round"/>
<path d="M48.2153 48.9211L67.4603 43.3106C68.1478 43.1102 68.8843 43.1623 69.5367 43.4575L82.4999 49.3231" stroke="#D2BE8B" stroke-width="2" stroke-linecap="round" stroke-linejoin="round"/>
<path d="M63 101.823L51.6977 98.9975C51.2391 98.8829 50.814 98.6614 50.4572 98.3513L42 91" stroke="#D2BE8B" stroke-width="2" stroke-linecap="round" stroke-linejoin="round"/>
<path d="M0.999996 49V1H49" stroke="#D2BE8B" stroke-width="2"/>
<path d="M137 89L137 137L89 137" stroke="#D2BE8B" stroke-width="2"/>
<path d="M49 137L0.999998 137L1 89" stroke="#D2BE8B" stroke-width="2"/>
<path d="M89 0.999998L137 1L137 49" stroke="#D2BE8B" stroke-width="2"/>
</svg>
