<svg width="16" height="16" viewBox="0 0 16 16" fill="none" xmlns="http://www.w3.org/2000/svg">
<path fill-rule="evenodd" clip-rule="evenodd" d="M15.4362 12.1902L10.2247 7.14173L8.09206 9.25962C8.09206 9.25962 7.09934 10.4409 6.10819 9.45663C5.11703 8.47234 6.33137 7.51113 6.33137 7.51113L13.4237 0.467914C13.4237 0.467914 14.0795 -0.120244 14.7752 0.221647C15.4801 0.568045 15.4324 1.31753 15.4324 1.31753L15.4362 12.1902ZM10.9497 1.55726C10.6012 1.21117 10.6128 0.638453 10.9757 0.278067C11.3386 -0.0823312 11.9153 -0.0939181 12.2639 0.252172L12.6548 0.64046L11.3407 1.94554L10.9497 1.55726ZM9.72878 3.52164L7.75068 1.55726C7.40218 1.21117 7.41385 0.638453 7.77675 0.278067C8.13966 -0.0823312 8.71636 -0.0939181 9.06487 0.252172L11.043 2.21656L9.72878 3.52164ZM8.11688 5.08543L4.56409 1.55726C4.21559 1.21117 4.22726 0.638453 4.59016 0.278067C4.95307 -0.0823312 5.52977 -0.0939181 5.87828 0.252172L9.43106 3.78035L8.11688 5.08543ZM6.02139 7.20329C6.02139 7.20329 4.60354 8.57549 5.885 9.76446C6.94848 10.7512 7.96319 9.99845 8.27766 9.71378L8.38152 9.61065L8.38242 9.61155L8.71559 9.28069L8.71029 9.27544L10.1569 7.83882L15.2684 12.9149C15.3339 12.9799 15.3884 13.0516 15.4324 13.1276V14.1388C15.3884 14.2148 15.3339 14.2865 15.2684 14.3515C14.8689 14.7482 14.2213 14.7482 13.8218 14.3515L9.54974 10.1091C9.47093 10.0687 9.35519 10.0392 9.25758 10.1339C9.1595 10.229 9.1774 10.3493 9.20842 10.4318L12.7186 13.9177C13.0673 14.264 13.0556 14.8371 12.6925 15.1978C12.3293 15.5584 11.7522 15.57 11.4034 15.2237L7.91006 11.7545C7.832 11.7065 7.70864 11.6665 7.58369 11.7715C7.45026 11.8837 7.5242 12.04 7.58312 12.1264L10.0147 14.5411C10.3634 14.8874 10.4203 15.4047 10.0959 15.7269C9.77149 16.0491 9.18857 16.0541 8.83982 15.7078L7.67953 14.5925C7.67953 14.5925 7.66828 14.5563 7.64706 14.4991C7.58431 14.3737 7.43679 14.1237 7.18692 13.914C6.56392 13.3914 5.8726 13.6308 5.8726 13.6308C5.8726 13.6308 6.14815 12.6433 5.38904 12.1163C4.21631 11.3021 3.13239 12.6581 3.13239 12.6581C3.13239 12.6581 3.17886 11.8376 2.41323 11.4144C1.46336 10.8894 0.688606 11.6587 0.580696 11.7897C0.570789 11.8017 0.565755 11.8085 0.565755 11.8085V1.85932C0.565755 1.85932 0.503772 0.664926 1.23531 0.307841C2.21263 -0.283962 2.99599 0.615673 2.99599 0.615673L7.80688 5.41786L6.02139 7.20329ZM2.42003 11.9806C2.8074 12.3653 2.8074 12.989 2.42003 13.3737L1.69232 14.0963C1.38761 14.3989 0.934023 14.4634 0.565755 14.2899V12.4289L1.01722 11.9806C1.4046 11.5959 2.03265 11.5959 2.42003 11.9806ZM3.84476 12.5683C4.22002 12.1956 4.82846 12.1956 5.20372 12.5683C5.57899 12.941 5.57899 13.5452 5.20372 13.9178L4.0201 15.0933C3.64483 15.4659 3.0364 15.4659 2.66113 15.0933C2.28587 14.7206 2.28587 14.1164 2.66113 13.7437L3.84476 12.5683ZM5.53251 14.2879C5.91988 13.9032 6.54794 13.9032 6.93531 14.2879C7.32269 14.6726 7.32269 15.2963 6.93531 15.681L6.9046 15.7115C6.51723 16.0962 5.88917 16.0962 5.50179 15.7115C5.11442 15.3268 5.11442 14.7031 5.50179 14.3184L5.53251 14.2879Z" fill="url(#paint0_linear)"/>
<defs>
<linearGradient id="paint0_linear" x1="8.00035" y1="0" x2="8.00035" y2="16" gradientUnits="userSpaceOnUse">
<stop stop-color="#E5D6A0"/>
<stop offset="1" stop-color="#D2BE8B"/>
</linearGradient>
</defs>
</svg>
